<svg width="800" height="800" viewBox="0 0 800 800" fill="none" xmlns="http://www.w3.org/2000/svg">
<path fill-rule="evenodd" clip-rule="evenodd" d="M288.665 150.532C267.838 179.208 263.297 211.185 268.853 228.143C271.72 236.89 266.953 246.305 258.205 249.172C249.458 252.038 240.043 247.27 237.178 238.523C227.36 208.56 236.57 165.537 261.695 130.944C287.603 95.2706 331.558 66.6666 393.94 66.6666C457.327 66.6666 504.58 92.7005 533.538 127.221C561.883 161.009 573.545 204.328 562.645 238.41C559.842 247.178 550.46 252.012 541.693 249.208C532.927 246.403 528.092 237.023 530.897 228.257C537.395 207.935 531.162 176.253 508 148.643C485.453 121.764 447.592 100 393.94 100C342.903 100 308.708 122.935 288.665 150.532Z" fill="#5B8E29"/>
<path fill-rule="evenodd" clip-rule="evenodd" d="M316.667 100C325.872 100 333.333 107.462 333.333 116.667V183.333C333.333 192.538 325.872 200 316.667 200C307.462 200 300 192.538 300 183.333V116.667C300 107.462 307.462 100 316.667 100Z" fill="#5B8E29"/>
<path fill-rule="evenodd" clip-rule="evenodd" d="M400 66.6666C409.205 66.6666 416.667 74.1286 416.667 83.3333V150C416.667 159.205 409.205 166.667 400 166.667C390.795 166.667 383.333 159.205 383.333 150V83.3333C383.333 74.1286 390.795 66.6666 400 66.6666Z" fill="#5B8E29"/>
<path fill-rule="evenodd" clip-rule="evenodd" d="M302.09 493.803C298.285 486.007 289.69 481.793 281.31 483.853C191.242 505.987 100 551.118 100 619.012V700V733.333H133.333H666.667H700V700V619.012C700 551.118 608.758 505.987 518.69 483.853C510.31 481.793 501.715 486.007 497.91 493.803H430.175C415.363 493.807 407.822 493.807 400.413 493.807C392.728 493.805 385.187 493.805 369.822 493.808L302.09 493.803ZM430.182 527.137C430.183 527.137 430.178 527.137 430.182 527.137C415.277 527.14 407.767 527.14 400.4 527.14C392.763 527.138 385.27 527.138 369.83 527.142L302.087 527.137L281.263 527.135L277.427 519.273C238.722 529.715 202.213 544.25 175.27 562.073C144.877 582.178 133.333 601.658 133.333 619.012V700H666.667V619.012C666.667 601.658 655.123 582.178 624.73 562.073C597.787 544.25 561.278 529.715 522.573 519.273L518.737 527.137H497.91H430.182Z" fill="#5B8E29"/>
<path d="M266.667 583.333C266.667 574.128 274.128 566.667 283.333 566.667C292.538 566.667 300 574.128 300 583.333V700C300 709.205 292.538 716.667 283.333 716.667C274.128 716.667 266.667 709.205 266.667 700V583.333Z" fill="#5B8E29"/>
<path d="M500 583.333C500 574.128 507.462 566.667 516.667 566.667C525.872 566.667 533.333 574.128 533.333 583.333V700C533.333 709.205 525.872 716.667 516.667 716.667C507.462 716.667 500 709.205 500 700V583.333Z" fill="#5B8E29"/>
<path fill-rule="evenodd" clip-rule="evenodd" d="M483.333 100C492.538 100 500 107.462 500 116.667V183.333C500 192.538 492.538 200 483.333 200C474.128 200 466.667 192.538 466.667 183.333V116.667C466.667 107.462 474.128 100 483.333 100Z" fill="#5B8E29"/>
<path fill-rule="evenodd" clip-rule="evenodd" d="M209.473 262.737C206.52 241.74 218.91 222.002 238.928 204.21L261.073 229.123C243.59 244.663 241.918 254.093 242.482 258.095C243.072 262.29 247.277 269.208 262.235 276.807C291.477 291.66 344.508 300 400 300C455.492 300 508.523 291.66 537.765 276.807C552.725 269.208 556.93 262.29 557.52 258.095C558.082 254.093 556.41 244.663 538.928 229.123L561.073 204.21C581.09 222.002 593.482 241.74 590.528 262.737C587.602 283.543 570.713 297.458 552.86 306.527C516.477 325.007 457.008 333.333 400 333.333C342.992 333.333 283.523 325.007 247.14 306.527C229.287 297.458 212.398 283.543 209.473 262.737Z" fill="#5B8E29"/>
<path fill-rule="evenodd" clip-rule="evenodd" d="M283.333 300C283.333 364.433 335.567 416.667 400 416.667C464.433 416.667 516.667 364.433 516.667 300H550C550 382.843 482.843 450 400 450C317.157 450 250 382.843 250 300H283.333Z" fill="#5B8E29"/>
</svg>
