<svg width="800" height="800" viewBox="0 0 800 800" fill="none" xmlns="http://www.w3.org/2000/svg">
<path d="M500 633.333L566.667 700L700 566.667M433.333 100H273.333C235.997 100 217.328 100 203.067 107.266C190.523 113.658 180.324 123.856 173.933 136.401C166.667 150.661 166.667 169.33 166.667 206.667V593.333C166.667 630.67 166.667 649.34 173.933 663.6C180.324 676.143 190.523 686.343 203.067 692.733C217.328 700 235.997 700 273.333 700H400M433.333 100L633.333 300M433.333 100V246.667C433.333 265.335 433.333 274.669 436.967 281.8C440.163 288.072 445.26 293.171 451.533 296.367C458.663 300 467.997 300 486.667 300H633.333M633.333 300V450" stroke="#5B8E29" stroke-width="66.6667" stroke-linecap="round" stroke-linejoin="round"/>
</svg>
